<?xml version="1.0" standalone="no"?>
<!DOCTYPE svg PUBLIC "-//W3C//DTD SVG 20010904//EN"
 "http://www.w3.org/TR/2001/REC-SVG-20010904/DTD/svg10.dtd">
<svg version="1.0" xmlns="http://www.w3.org/2000/svg"
 width="265.000000pt" height="265.000000pt" viewBox="0 0 265.000000 265.000000"
 preserveAspectRatio="xMidYMid meet">
<metadata>
Created by potrace 1.11, written by Peter Selinger 2001-2013
</metadata>
<g transform="translate(0.000000,265.000000) scale(0.100000,-0.100000)"
fill="#000000" stroke="none">
<path d="M2378 2244 c-2 -1 -61 -5 -133 -9 -71 -4 -146 -8 -165 -10 -19 -1
-68 -4 -108 -5 -40 -2 -74 -6 -76 -9 -2 -3 -7 -92 -10 -197 -6 -188 -10 -272
-21 -484 -14 -281 -21 -318 -61 -345 -31 -20 -63 -14 -117 21 -43 28 -49 26
-67 -16 -7 -16 -15 -30 -19 -30 -4 0 -7 -8 -8 -17 -2 -18 -143 -361 -163 -396
-9 -15 3 -32 82 -111 160 -161 286 -220 463 -218 310 4 566 210 646 519 20 78
23 169 14 388 -2 44 -6 181 -10 305 -4 124 -9 257 -10 295 -2 39 -3 86 -4 105
-1 31 -13 48 -90 125 -63 64 -96 90 -115 91 -14 0 -27 0 -28 -2z"/>
<path d="M229 2186 c-2 -2 -49 -7 -104 -10 -55 -4 -103 -10 -107 -14 -4 -4
-10 -354 -12 -777 l-5 -770 91 -92 c50 -51 94 -90 97 -89 3 2 47 7 97 10 51 4
101 8 111 10 11 3 46 7 79 10 32 4 68 9 79 11 11 2 36 7 55 9 135 19 337 75
436 121 273 125 431 353 439 629 4 152 -41 288 -143 431 -70 98 -296 325 -371
374 -146 94 -330 141 -577 146 -89 3 -163 3 -165 1z"/>
</g>
</svg>
