<?xml version="1.0" standalone="no"?>
<!DOCTYPE svg PUBLIC "-//W3C//DTD SVG 20010904//EN"
 "http://www.w3.org/TR/2001/REC-SVG-20010904/DTD/svg10.dtd">
<svg version="1.0" xmlns="http://www.w3.org/2000/svg"
 width="264.000000pt" height="264.000000pt" viewBox="0 0 264.000000 264.000000"
 preserveAspectRatio="xMidYMid meet">
<metadata>
Created by potrace 1.11, written by Peter Selinger 2001-2013
</metadata>
<g transform="translate(0.000000,264.000000) scale(0.100000,-0.100000)"
fill="#000000" stroke="none">
<path d="M261 2250 c-103 -38 -184 -110 -230 -209 l-26 -56 0 -665 0 -665 27
-57 c37 -80 108 -152 187 -191 l66 -32 310 0 c330 0 380 4 490 36 92 28 237
98 265 129 3 3 19 16 35 27 l31 21 27 -47 c33 -59 94 -116 156 -145 43 -20 64
-21 301 -23 241 -2 259 0 326 21 161 52 285 157 353 299 22 45 44 105 50 132
7 33 10 243 8 605 l-2 555 -31 65 c-50 103 -119 165 -225 200 -58 20 -81 21
-269 18 -196 -3 -207 -4 -260 -29 -116 -55 -199 -160 -224 -284 l-11 -57 -27
37 c-112 158 -310 275 -523 310 -16 3 -55 9 -85 14 -30 5 -192 9 -360 10 -280
1 -309 -1 -359 -19z"/>
</g>
</svg>
